<?xml version="1.0" encoding="utf-8"?>
<!-- Generator: Adobe Illustrator 16.0.0, SVG Export Plug-In . SVG Version: 6.00 Build 0)  -->
<!DOCTYPE svg PUBLIC "-//W3C//DTD SVG 1.1//EN" "http://www.w3.org/Graphics/SVG/1.1/DTD/svg11.dtd">
<svg version="1.1" id="Layer_1" xmlns="http://www.w3.org/2000/svg" xmlns:xlink="http://www.w3.org/1999/xlink" x="0px" y="0px"
	 width="233.531px" height="25.926px" viewBox="0 0 233.531 25.926" enable-background="new 0 0 233.531 25.926"
	 xml:space="preserve">
<rect fill="#000000" width="233.531" height="25.926"/>
<g>
	<path fill="#FFFFFF" d="M7.518,7.429h1.101v11.142H7.518V7.429z"/>
	<path fill="#FFFFFF" d="M13.28,8.386H9.992V7.429h7.678v0.957h-3.289v10.185H13.28V8.386z"/>
	<path fill="#FFFFFF" d="M16.41,13.717h4.007v1.102H16.41V13.717z"/>
	<path fill="#FFFFFF" d="M30.443,14.676c0,3.289-2.41,4.086-4.038,4.086s-4.04-0.797-4.04-4.086V7.429h1.102v7.248
		c0,1.818,1.007,3.129,2.938,3.129c1.931,0,2.937-1.311,2.937-3.129V7.429h1.102V14.676z"/>
	<path fill="#FFFFFF" d="M32.952,7.429h1.39l5.666,9.8h0.033v-9.8h1.101v11.142h-1.485l-5.57-9.61h-0.032v9.61h-1.102V7.429z"/>
	<path fill="#FFFFFF" d="M43.602,7.429h1.102v11.142h-1.102V7.429z"/>
	<path fill="#FFFFFF" d="M51.346,18.571h-1.182l-4.15-11.142h1.166l3.59,10.041L54.49,7.429h1.085L51.346,18.571z"/>
	<path fill="#FFFFFF" d="M57.046,7.429h5.46v0.957h-4.358v3.975h4.135v0.959h-4.135v4.294h4.55v0.957h-5.651V7.429z"/>
	<path fill="#FFFFFF" d="M65.063,7.429h2.873c1.979,0,3.272,0.846,3.272,2.889c0,1.438-1.101,2.395-2.474,2.57v0.032
		c0.893,0.111,1.084,0.591,1.436,1.34l1.9,4.311h-1.213l-1.613-3.768c-0.639-1.436-1.117-1.484-2.17-1.484h-0.91v5.251h-1.102V7.429
		z M66.164,12.36h1.164c1.293,0,2.779-0.494,2.779-2.043c0-1.819-1.293-1.932-2.811-1.932h-1.133V12.36z"/>
	<path fill="#FFFFFF" d="M73.604,17.149c0.654,0.416,1.422,0.656,2.459,0.656c1.373,0,2.506-0.703,2.506-2.283
		c0-2.188-5.107-2.458-5.107-5.379c0-1.788,1.564-2.905,3.527-2.905c0.543,0,1.422,0.08,2.188,0.366L79,8.61
		c-0.495-0.271-1.277-0.416-2.027-0.416c-1.148,0-2.41,0.479-2.41,1.916c0,2.235,5.107,2.25,5.107,5.507
		c0,2.25-1.932,3.145-3.654,3.145c-1.086,0-1.932-0.223-2.523-0.479L73.604,17.149z"/>
	<path fill="#FFFFFF" d="M81.748,7.429h1.102v11.142h-1.102V7.429z"/>
	<path fill="#FFFFFF" d="M87.512,8.386h-3.289V7.429H91.9v0.957h-3.288v10.185h-1.101V8.386z"/>
	<path fill="#FFFFFF" d="M93.419,7.429h5.46v0.957h-4.358v3.975h4.135v0.959h-4.135v4.294h4.55v0.957h-5.651V7.429z"/>
	<path fill="#FFFFFF" d="M103.479,8.386h-3.289V7.429h7.679v0.957h-3.288v10.185h-1.102V8.386z"/>
	<path fill="#FFFFFF" d="M109.387,7.429h5.459v0.957h-4.357v3.975h4.135v0.959h-4.135v4.294h4.549v0.957h-5.65V7.429z"/>
	<path fill="#FFFFFF" d="M119.445,8.386h-3.289V7.429h7.68v0.957h-3.289v10.185h-1.102V8.386z"/>
	<path fill="#FFFFFF" d="M129.648,7.429h1.102v11.142h-1.102V7.429z"/>
	<path fill="#FFFFFF" d="M137.92,7.429h1.102v4.996l5.013-4.996h1.437l-5.396,5.252l5.859,5.89h-1.517L139.021,13v5.571h-1.102
		V7.429z"/>
	<path fill="#FFFFFF" d="M157.223,7.492l-1.453,1.677c0.717,1.021,1.068,2.395,1.053,3.831c-0.031,3.417-1.691,5.762-4.9,5.762
		c-1.452,0-2.602-0.479-3.384-1.324l-1.293,1.484l-0.624-0.527l1.406-1.611c-0.655-0.959-0.99-2.268-1.006-3.784
		c-0.032-3.018,1.549-5.763,4.9-5.763c1.404,0,2.506,0.479,3.305,1.293l1.373-1.564L157.223,7.492z M154.508,9.36
		c-0.622-0.719-1.469-1.166-2.586-1.166c-2.618,0-3.799,2.442-3.799,4.806c0,1.022,0.224,2.043,0.686,2.874L154.508,9.36z
		 M149.288,16.592c0.606,0.732,1.485,1.213,2.634,1.213c2.618,0,3.799-2.443,3.799-4.805c0-1.038-0.223-2.092-0.719-2.954
		L149.288,16.592z"/>
	<path fill="#FFFFFF" d="M158.965,7.429h2.649c1.819,0,3.528,0.606,3.528,2.745c0,1.421-0.654,2.267-2.027,2.538v0.033
		c1.404,0.255,2.362,1.179,2.362,2.648c0,2.428-1.979,3.178-4.294,3.178h-2.219V7.429z M160.098,12.297h1.23
		c1.164,0,2.713-0.303,2.713-2.074c0-1.612-1.484-1.837-2.427-1.837h-1.517V12.297z M160.066,17.614h1.148
		c1.485,0,3.161-0.4,3.161-2.172c0-1.98-1.708-2.186-3.337-2.186h-0.973V17.614z"/>
	<path fill="#FFFFFF" d="M167.938,7.429h5.46v0.957h-4.358v3.975h4.135v0.959h-4.135v4.294h4.55v0.957h-5.651V7.429z"/>
	<path fill="#FFFFFF" d="M175.777,7.429h1.39l5.667,9.8h0.032v-9.8h1.101v11.142h-1.484l-5.571-9.61h-0.032v9.61h-1.102V7.429z"/>
	<path fill="#FFFFFF" d="M186.604,7.429h1.102v4.932h5.635V7.429h1.102v11.142h-1.102v-5.251h-5.635v5.251h-1.102V7.429z"/>
	<path fill="#FFFFFF" d="M200.622,7.429h1.245l4.422,11.142h-1.149l-1.198-2.986h-5.619l-1.196,2.986h-1.069L200.622,7.429z
		 M201.164,8.482l-2.426,6.145h4.837L201.164,8.482z"/>
	<path fill="#FFFFFF" d="M211.128,18.571h-1.182l-4.149-11.142h1.164l3.592,10.041l3.72-10.041h1.085L211.128,18.571z"/>
	<path fill="#FFFFFF" d="M216.686,7.429h1.389l5.667,9.8h0.032v-9.8h1.102v11.142h-1.484l-5.572-9.61h-0.031v9.61h-1.102V7.429z"/>
</g>
</svg>
